<?xml version="1.0" standalone="no"?>
<!DOCTYPE svg PUBLIC "-//W3C//DTD SVG 1.1//EN" 
"http://www.w3.org/Graphics/SVG/1.1/DTD/svg11.dtd">

<svg width="100%" height="100%" version="1.1"
xmlns="http://www.w3.org/2000/svg">

<ellipse cx="240" cy="100" rx="220" ry="30"
style="fill:yellow"/>

<ellipse cx="220" cy="100" rx="190" ry="20"
style="fill:white"/>

<line x1="50" y1="200" x2="500" y2="200" style="stroke:rgb(99,99,99);stroke-width:2"/>

<rect x="250" y="250" width="200" height="100" style="fill:#ccc;stroke:rgb(0,0,0)stroke-width:2"/>

<circle cx="250" cy="420" r="50" style="fill:red;stroke:#000;stroke-width:2"/>

<text fill="#fff" stroke="black" font-size="45" x="50" y="520">svg 文本</text>

<path d="M50 500
C153 334 151 334 151 334
C151 339 153 344 156 344
C164 344 171 339 171 334
C171 322 164 314 156 314
C142 314 131 322 131 334
C131 350 142 364 156 364
C175 364 191 350 191 334
C191 311 175 294 156 294
C131 294 111 311 111 334
C111 361 131 384 156 384
C186 384 211 361 211 334
C211 300 186 274 156 274
" style="fill:#fff;stroke:red;stroke-width:2"/>




<line x1="0" y1="50" x2="0" y2="650" style="stroke:rgb(99,99,99);stroke-width:2"/>
<line x1="0" y1="650" x2="1240" y2="650" style="stroke:rgb(99,99,99);stroke-width:2"/>
<rect x="10" y="410" width="50" height="240" style="fill:#ff7c7c;stroke:rgb(0,0,0);stroke-width:2"/>
<rect x="80" y="450" width="50" height="200" style="fill:#ff7c7c;stroke:rgb(0,0,0);stroke-width:2"/>
<rect x="150" y="330" width="50" height="320" style="fill:#ff7c7c;stroke:rgb(0,0,0);stroke-width:2"/>
<rect x="220" y="240" width="50" height="410" style="fill:#ff7c7c;stroke:rgb(0,0,0);stroke-width:2"/>
<rect x="290" y="150" width="50" height="500" style="fill:#ff7c7c;stroke:rgb(0,0,0);stroke-width:2"/>
<rect x="360" y="410" width="50" height="240" style="fill:#ff7c7c;stroke:rgb(0,0,0);stroke-width:2"/>
<rect x="430" y="450" width="50" height="200" style="fill:#ff7c7c;stroke:rgb(0,0,0);stroke-width:2"/>
<rect x="500" y="330" width="50" height="320" style="fill:#ff7c7c;stroke:rgb(0,0,0);stroke-width:2"/>
<rect x="570" y="240" width="50" height="410" style="fill:#ff7c7c;stroke:rgb(0,0,0);stroke-width:2"/>
<rect x="640" y="410" width="50" height="240" style="fill:#ff7c7c;stroke:rgb(0,0,0);stroke-width:2"/>
<rect x="710" y="450" width="50" height="200" style="fill:#ff7c7c;stroke:rgb(0,0,0);stroke-width:2"/>
<rect x="780" y="330" width="50" height="320" style="fill:#ff7c7c;stroke:rgb(0,0,0);stroke-width:2"/>


   


</svg> 


